<?xml version="1.0" standalone="no"?>
<!DOCTYPE svg PUBLIC "-//W3C//DTD SVG 20010904//EN"
 "http://www.w3.org/TR/2001/REC-SVG-20010904/DTD/svg10.dtd">
<svg version="1.0" xmlns="http://www.w3.org/2000/svg"
 width="816.000000pt" height="816.000000pt" viewBox="0 0 816.000000 816.000000"
 preserveAspectRatio="xMidYMid meet">
<metadata>
Created by potrace 1.11, written by Peter Selinger 2001-2013
</metadata>
<g transform="translate(0.000000,816.000000) scale(0.100000,-0.100000)"
fill="#000000" stroke="none">
<path d="M0 6548 l0 -903 31 -35 c17 -19 43 -51 58 -70 14 -19 36 -46 48 -60
11 -14 49 -59 83 -100 34 -41 74 -89 88 -106 15 -18 38 -46 52 -64 14 -18 30
-37 35 -44 6 -6 51 -60 100 -121 49 -60 96 -117 104 -126 9 -9 27 -31 41 -49
14 -18 30 -38 35 -44 6 -6 28 -33 50 -61 22 -27 45 -56 52 -63 7 -7 29 -34 50
-60 21 -26 43 -52 48 -58 6 -6 24 -28 40 -49 17 -22 40 -50 53 -63 12 -12 22
-27 22 -32 0 -4 3 -10 8 -12 4 -1 50 -55 102 -118 52 -63 99 -120 105 -126 5
-6 21 -26 35 -44 14 -18 32 -41 40 -50 8 -10 29 -35 45 -55 17 -21 37 -45 45
-54 8 -9 53 -63 100 -121 46 -58 87 -107 90 -110 3 -3 57 -68 120 -145 63 -77
117 -142 120 -145 3 -3 17 -21 32 -42 15 -20 33 -42 40 -50 7 -7 56 -65 108
-128 52 -63 97 -117 100 -120 3 -3 18 -23 35 -45 16 -22 36 -47 45 -55 9 -8
38 -43 64 -77 27 -35 53 -63 57 -63 5 0 9 -5 9 -10 0 -6 48 -68 106 -138 58
-70 120 -145 137 -166 18 -21 42 -50 55 -63 13 -12 19 -23 15 -23 -4 0 -3 -4
2 -8 6 -4 33 -34 60 -67 28 -33 56 -66 63 -73 7 -8 25 -30 40 -50 15 -20 35
-45 45 -57 28 -31 38 -43 133 -160 120 -149 117 -144 138 -168 10 -12 35 -42
55 -67 20 -25 38 -47 41 -50 3 -3 34 -41 70 -85 35 -44 70 -86 77 -93 8 -8 26
-30 41 -50 15 -20 35 -45 45 -57 23 -25 33 -37 87 -105 25 -30 49 -60 55 -66
5 -6 24 -28 40 -49 17 -21 42 -52 57 -69 28 -33 303 -367 368 -448 42 -52 42
-52 85 8 11 15 25 32 30 38 6 6 35 40 65 76 30 35 60 70 65 76 6 6 28 33 50
59 22 27 45 53 50 59 6 6 42 49 80 96 38 47 74 90 80 96 5 6 25 29 43 52 19
23 44 52 55 65 12 14 36 41 52 62 17 20 41 49 54 63 13 15 40 47 60 72 20 25
39 47 42 50 3 3 30 34 60 70 29 36 55 67 58 70 4 3 24 28 46 55 66 82 69 86
95 114 14 14 41 46 61 71 20 25 45 55 55 66 11 12 30 36 44 54 14 18 39 47 55
65 25 26 86 98 175 209 8 10 26 31 40 47 14 15 41 47 60 70 19 23 49 59 66 78
17 20 59 70 93 111 34 41 70 84 79 95 9 11 40 48 69 83 29 34 58 68 65 76 7 7
29 32 48 56 19 24 40 48 45 54 6 6 55 65 110 131 55 66 105 125 110 131 6 6
25 29 43 52 19 23 43 51 54 64 11 13 37 43 57 68 20 24 44 53 54 65 10 11 24
27 31 35 12 14 98 117 136 164 8 10 20 23 25 30 13 14 241 284 263 311 35 43
117 140 122 145 3 3 38 46 79 95 41 50 79 95 85 100 6 6 29 33 51 60 38 48 52
65 92 111 10 12 36 43 58 69 78 93 117 140 139 165 11 14 44 52 71 85 28 33
52 62 55 65 3 3 25 30 50 60 25 30 50 61 57 68 7 7 29 33 50 59 21 26 47 56
58 68 11 12 36 42 55 65 19 24 43 52 53 62 9 10 17 20 17 22 0 4 42 54 103
121 l37 42 0 932 0 931 -4080 0 -4080 0 0 -902z"/>
</g>
</svg>
